<?xml version="1.0" standalone="no"?>
<!DOCTYPE svg PUBLIC "-//W3C//DTD SVG 20010904//EN"
 "http://www.w3.org/TR/2001/REC-SVG-20010904/DTD/svg10.dtd">
<svg version="1.0" xmlns="http://www.w3.org/2000/svg"
 width="606.000000pt" height="894.000000pt" viewBox="0 0 606.000000 894.000000"
 preserveAspectRatio="xMidYMid meet">
<metadata>
Created by potrace 1.10, written by Peter Selinger 2001-2011
</metadata>
<g transform="translate(0.000000,894.000000) scale(0.100000,-0.100000)"
fill="#000000" stroke="none">
<path d="M1833 8907 c-12 -17 -65 -133 -118 -257 -53 -124 -105 -245 -116
-270 -11 -25 -26 -58 -33 -75 -7 -16 -20 -47 -29 -68 -9 -20 -23 -53 -31 -72
-9 -20 -22 -51 -30 -70 -9 -20 -22 -51 -30 -70 -9 -20 -22 -51 -30 -70 -9 -20
-22 -51 -31 -70 -8 -19 -21 -50 -29 -67 -8 -18 -21 -50 -30 -70 -9 -21 -23
-53 -32 -73 -8 -19 -21 -50 -30 -70 -36 -85 -47 -111 -54 -126 -4 -8 -47 -107
-95 -219 -48 -112 -91 -211 -95 -219 -7 -15 -18 -41 -54 -126 -9 -20 -22 -51
-30 -70 -9 -20 -22 -51 -30 -70 -9 -20 -22 -51 -30 -70 -9 -20 -23 -52 -32
-73 -9 -20 -23 -53 -31 -72 -8 -19 -22 -51 -30 -70 -8 -19 -21 -48 -28 -65
-13 -31 -30 -70 -61 -140 -19 -43 -38 -88 -62 -145 -8 -19 -18 -42 -22 -51 -5
-8 -40 -92 -80 -185 -40 -93 -76 -173 -81 -178 -5 -6 -9 -16 -9 -23 0 -7 -14
-43 -31 -80 -16 -38 -36 -81 -43 -98 -7 -16 -20 -47 -29 -68 -9 -20 -23 -52
-30 -70 -7 -17 -22 -50 -31 -72 -10 -22 -25 -56 -33 -75 -8 -19 -22 -51 -30
-70 -8 -19 -22 -51 -30 -70 -9 -19 -21 -48 -28 -65 -7 -16 -21 -48 -31 -70
-18 -41 -37 -85 -62 -145 -8 -19 -21 -47 -29 -62 -7 -14 -13 -38 -13 -52 l0
-27 116 3 115 3 216 505 c118 278 222 521 231 540 19 42 41 95 58 135 6 17 19
46 27 65 8 19 22 51 30 70 8 19 22 51 30 70 8 19 22 51 30 70 57 133 38 88 60
140 8 19 22 52 31 72 9 21 23 53 32 73 8 19 21 50 30 70 8 19 21 50 30 70 8
19 21 50 30 70 8 19 21 50 30 70 8 19 21 50 30 70 8 19 21 50 30 70 8 19 21
50 30 70 8 19 22 52 31 72 8 21 22 54 31 73 8 19 20 49 27 65 7 17 20 48 30
70 9 22 23 54 29 70 7 17 19 46 28 65 8 19 21 51 30 70 8 19 23 53 32 75 23
51 45 102 60 140 7 17 21 48 30 70 10 22 24 54 30 70 16 38 38 89 60 140 10
22 24 55 32 73 7 18 21 49 30 70 25 58 45 104 58 137 16 38 38 89 60 140 10
22 24 54 30 70 20 48 47 108 62 138 8 16 14 35 14 42 0 8 7 21 16 30 12 12 19
13 30 4 8 -6 14 -17 14 -24 0 -8 6 -26 14 -42 14 -27 34 -72 64 -143 9 -19 22
-51 30 -70 9 -19 21 -48 28 -65 7 -16 27 -60 43 -98 17 -37 31 -69 31 -72 0
-3 14 -35 31 -72 16 -38 36 -83 44 -101 8 -18 22 -49 31 -70 9 -20 22 -50 29
-67 7 -16 20 -47 29 -67 9 -21 23 -53 32 -73 8 -19 21 -50 30 -70 8 -19 21
-50 30 -70 36 -86 47 -111 54 -126 5 -8 34 -76 65 -149 31 -73 60 -141 65
-149 4 -9 14 -33 23 -54 9 -20 23 -53 32 -72 8 -19 22 -51 30 -70 9 -19 22
-50 31 -70 8 -19 21 -50 30 -70 8 -19 21 -50 30 -70 38 -90 48 -112 61 -137
17 -34 17 -89 -1 -125 -8 -15 -21 -44 -29 -63 -8 -19 -23 -53 -33 -75 -9 -22
-23 -53 -30 -70 -6 -16 -20 -48 -30 -70 -9 -22 -24 -56 -32 -75 -9 -19 -22
-51 -30 -70 -9 -19 -22 -50 -29 -67 -35 -84 -64 -151 -102 -236 -17 -37 -31
-73 -31 -80 0 -7 -4 -17 -9 -22 -21 -23 -361 -835 -355 -849 5 -13 24 -16 104
-16 97 0 99 0 119 29 12 16 21 33 21 38 0 8 214 516 286 678 22 51 44 102 60
140 6 17 19 46 27 65 8 19 22 51 30 70 8 19 22 52 31 73 9 20 23 54 32 75 9
20 23 53 31 72 8 19 21 49 27 65 20 48 47 108 62 138 8 16 14 35 14 42 0 8 5
17 11 20 13 9 49 -23 49 -43 0 -7 6 -26 14 -40 8 -15 35 -79 61 -142 26 -63
53 -128 60 -145 7 -16 20 -46 28 -65 8 -19 22 -51 30 -70 34 -78 48 -112 60
-142 17 -41 39 -93 59 -138 9 -19 37 -87 63 -150 50 -121 62 -149 91 -215 9
-22 23 -53 30 -70 41 -101 73 -174 90 -208 8 -16 14 -35 14 -42 0 -25 36 -35
124 -35 101 0 124 13 101 58 -18 36 -61 134 -91 207 -6 17 -20 48 -30 70 -9
22 -23 54 -30 70 -6 17 -19 46 -27 65 -8 19 -22 51 -30 70 -8 19 -22 51 -30
70 -8 19 -22 51 -30 70 -8 19 -22 51 -30 70 -8 19 -22 51 -30 70 -8 19 -22 51
-30 70 -21 48 -41 93 -76 173 -17 37 -31 73 -31 80 0 7 -4 17 -9 23 -5 5 -26
50 -46 99 -21 50 -46 108 -56 130 -64 141 -149 350 -149 366 0 11 4 27 9 37 4
9 15 33 23 52 8 19 23 53 32 75 10 22 24 55 32 73 8 17 20 47 28 65 8 17 21
48 29 67 8 19 22 51 30 70 14 34 28 65 64 147 9 21 22 52 29 68 14 35 44 103
54 125 4 9 67 155 140 325 73 170 136 316 140 325 4 8 14 31 22 50 8 19 21 51
30 70 8 19 21 51 30 70 8 19 21 51 30 70 8 19 22 52 31 73 21 48 43 98 60 140
17 39 42 97 61 140 8 17 17 42 21 53 3 12 14 29 24 38 18 17 20 16 26 -6 3
-13 13 -38 21 -55 8 -18 21 -47 28 -65 8 -18 21 -50 30 -70 9 -21 23 -53 32
-73 8 -19 21 -50 30 -70 8 -19 21 -49 28 -67 8 -18 22 -51 32 -73 9 -22 23
-53 30 -70 6 -16 20 -48 30 -70 19 -44 40 -93 61 -142 7 -18 20 -48 29 -68 8
-19 21 -50 30 -70 8 -19 21 -50 30 -70 8 -19 21 -50 30 -70 8 -19 21 -50 30
-70 8 -19 21 -50 30 -70 8 -19 22 -52 31 -72 9 -21 22 -51 29 -68 6 -16 20
-48 30 -70 23 -53 44 -102 61 -142 17 -42 38 -93 60 -140 9 -21 22 -53 30 -70
7 -18 20 -50 29 -70 9 -21 22 -51 29 -68 12 -30 33 -77 62 -145 9 -19 22 -50
29 -67 26 -61 60 -141 90 -210 9 -21 22 -51 29 -68 6 -16 20 -48 29 -70 23
-51 45 -102 60 -140 16 -38 38 -89 60 -140 10 -22 24 -53 30 -70 7 -16 21 -48
30 -70 10 -22 24 -53 30 -70 7 -16 21 -48 30 -70 10 -22 25 -56 33 -75 8 -19
22 -51 30 -70 8 -19 21 -48 27 -65 7 -16 21 -48 30 -70 10 -22 25 -56 33 -75
8 -19 21 -48 27 -65 16 -38 38 -89 60 -140 10 -22 25 -56 33 -75 8 -19 22 -51
30 -70 8 -19 22 -51 30 -70 8 -19 21 -48 29 -63 8 -16 14 -34 14 -41 0 -7 8
-20 18 -29 15 -14 40 -17 125 -17 103 0 107 1 107 22 0 12 -9 42 -21 67 -29
65 -49 111 -63 146 -14 34 -36 84 -58 135 -8 19 -22 51 -31 70 -8 19 -23 53
-33 75 -22 51 -44 102 -60 140 -6 17 -20 48 -30 70 -9 22 -23 54 -30 70 -14
35 -44 104 -54 126 -4 8 -54 123 -110 254 -56 131 -106 246 -110 254 -4 9 -14
32 -22 51 -8 19 -23 53 -32 75 -10 22 -25 56 -33 75 -8 19 -22 51 -30 70 -8
19 -22 51 -30 70 -9 19 -23 51 -31 70 -8 19 -21 49 -28 65 -6 17 -19 46 -27
65 -8 19 -22 51 -30 70 -8 19 -22 51 -30 70 -8 19 -22 51 -30 70 -8 19 -22 51
-30 70 -8 19 -22 51 -30 70 -24 57 -49 114 -57 131 -4 8 -54 123 -110 254 -56
131 -106 246 -110 254 -9 19 -54 124 -83 194 -21 49 -42 98 -61 142 -10 22
-24 55 -32 73 -8 17 -22 49 -31 70 -9 20 -23 52 -30 69 -7 18 -20 48 -29 68
-8 19 -21 50 -30 70 -8 19 -21 50 -30 70 -8 19 -22 52 -31 72 -9 21 -23 53
-30 70 -34 82 -42 100 -56 133 -9 19 -30 67 -47 105 -17 39 -41 91 -53 117
l-22 47 -92 1 c-75 0 -93 -3 -93 -15 0 -7 -6 -18 -13 -22 -14 -8 -39 -61 -100
-206 -7 -17 -21 -49 -30 -70 -9 -20 -23 -53 -31 -72 -9 -20 -22 -51 -30 -70
-9 -20 -22 -51 -30 -70 -9 -20 -22 -51 -31 -70 -8 -19 -22 -51 -30 -70 -9 -19
-22 -49 -29 -67 -8 -18 -22 -51 -32 -73 -9 -22 -24 -56 -32 -75 -8 -19 -18
-42 -22 -51 -5 -8 -40 -91 -80 -184 -40 -93 -75 -176 -80 -184 -4 -9 -14 -33
-23 -54 -9 -20 -24 -54 -33 -75 -9 -20 -22 -52 -30 -70 -7 -18 -20 -48 -28
-67 -9 -20 -22 -51 -30 -70 -35 -80 -44 -102 -61 -140 -10 -22 -25 -56 -33
-75 -9 -19 -22 -51 -30 -70 -9 -19 -21 -48 -28 -65 -83 -193 -107 -241 -119
-236 -6 2 -23 34 -38 70 -15 36 -37 86 -48 111 -20 44 -34 77 -63 145 -9 20
-22 51 -30 70 -9 20 -22 51 -30 70 -9 20 -22 51 -31 70 -8 19 -22 51 -30 70
-37 84 -49 112 -61 140 -6 17 -19 47 -28 67 -9 21 -23 53 -32 73 -36 85 -47
111 -54 126 -4 8 -47 107 -95 219 -48 112 -91 211 -95 219 -4 9 -14 32 -22 51
-8 19 -23 53 -32 75 -10 22 -25 56 -33 75 -8 19 -22 51 -30 70 -8 19 -21 49
-28 65 -7 17 -20 48 -30 70 -10 22 -24 54 -31 70 -23 58 -58 137 -94 217 -11
25 -28 49 -36 52 -8 3 -12 10 -9 16 4 6 -25 10 -82 10 l-88 0 -22 -33z"/>
<path d="M24 4215 c-4 -9 2 -33 11 -53 18 -37 37 -80 61 -137 6 -16 20 -48 30
-70 17 -38 32 -74 60 -140 7 -16 27 -60 43 -98 17 -37 31 -73 31 -80 0 -7 4
-17 9 -23 5 -5 48 -101 96 -213 48 -113 91 -212 95 -220 4 -9 14 -32 22 -51
20 -48 41 -98 61 -143 9 -20 23 -53 31 -72 9 -20 22 -51 30 -70 19 -42 40 -92
63 -142 20 -47 42 -98 59 -138 6 -16 19 -47 28 -67 9 -21 23 -53 32 -73 8 -19
21 -50 30 -70 27 -65 43 -100 73 -168 17 -37 31 -73 31 -80 0 -7 4 -17 9 -23
5 -5 41 -85 81 -178 40 -93 75 -177 80 -185 4 -9 14 -32 22 -51 8 -19 21 -51
30 -70 8 -19 21 -51 30 -70 8 -19 21 -51 30 -70 8 -19 23 -53 32 -75 10 -22
24 -55 32 -72 8 -18 22 -50 31 -70 9 -21 22 -51 29 -68 15 -38 37 -89 60 -140
9 -22 23 -53 30 -70 6 -16 20 -48 30 -70 17 -38 32 -74 60 -140 7 -16 27 -60
43 -98 17 -37 31 -73 31 -80 0 -7 4 -17 9 -22 5 -6 41 -86 81 -179 40 -93 75
-177 80 -185 4 -9 14 -32 22 -51 8 -19 22 -51 30 -70 9 -19 19 -43 22 -53 5
-15 20 -17 118 -17 l113 0 19 43 c10 23 22 49 26 58 4 8 34 76 65 149 31 73
60 141 65 149 4 9 14 32 22 51 24 57 43 102 62 145 10 22 24 54 30 70 7 17 19
46 28 65 8 19 21 51 30 70 8 19 22 52 31 73 17 36 29 65 60 137 8 19 22 51 30
70 25 58 49 114 57 131 5 8 40 91 80 184 40 93 75 176 80 184 4 9 14 32 22 51
8 19 21 51 30 70 8 19 21 51 30 70 8 19 23 53 32 75 10 22 24 54 30 70 7 17
20 47 29 68 9 20 24 54 34 75 9 20 22 49 30 64 7 14 13 33 13 41 0 9 5 19 11
22 12 8 49 -23 49 -41 0 -7 6 -25 14 -41 15 -30 42 -90 62 -138 6 -16 20 -48
30 -70 9 -22 24 -56 32 -75 9 -19 22 -51 30 -70 9 -19 22 -51 30 -70 9 -19 22
-51 30 -70 9 -19 22 -51 30 -70 8 -19 18 -42 22 -51 5 -8 40 -91 80 -184 40
-93 75 -176 80 -184 10 -22 40 -90 54 -126 18 -44 40 -94 61 -140 10 -22 23
-53 30 -70 7 -16 20 -46 28 -65 8 -19 22 -51 30 -70 8 -19 23 -53 33 -75 9
-22 23 -53 30 -70 6 -16 19 -46 27 -65 8 -19 22 -51 30 -70 8 -19 23 -53 33
-75 9 -22 23 -53 30 -70 7 -16 24 -55 38 -85 13 -30 32 -74 41 -97 l17 -43
112 0 113 0 13 28 c7 15 18 41 25 57 7 17 21 48 31 70 9 22 23 54 30 70 6 17
19 46 27 65 8 19 22 51 30 70 25 57 49 114 57 131 4 8 47 107 95 219 48 112
91 211 95 219 7 15 18 41 54 126 9 20 22 51 30 70 9 20 22 51 30 70 9 20 22
51 30 70 9 20 22 51 30 70 9 20 22 51 30 70 9 20 22 51 31 70 8 19 22 51 30
70 9 19 22 50 31 70 8 19 21 50 30 70 8 19 21 50 30 70 36 85 47 111 54 126 4
8 47 107 95 219 48 112 91 211 95 219 7 15 18 41 54 126 9 20 22 51 30 70 9
20 22 51 30 70 9 20 22 50 29 68 18 43 40 94 59 137 8 19 22 51 31 70 8 19 22
51 30 70 8 19 23 53 33 75 19 43 38 88 62 145 8 19 18 42 22 51 4 8 47 107 95
219 48 112 91 211 95 219 4 9 14 32 22 51 8 19 22 52 31 73 9 20 23 53 31 72
9 20 22 51 30 70 9 20 22 50 29 68 13 31 28 66 63 145 9 20 20 45 25 54 25 48
5 58 -122 58 -77 0 -88 -2 -107 -23 -12 -13 -22 -29 -22 -36 0 -7 -6 -25 -13
-39 -14 -27 -37 -79 -63 -140 -7 -18 -20 -48 -28 -67 -9 -20 -22 -51 -30 -70
-9 -20 -23 -52 -32 -73 -9 -20 -23 -53 -31 -72 -8 -19 -22 -51 -30 -70 -8 -19
-22 -51 -30 -70 -8 -19 -21 -50 -29 -68 -7 -18 -21 -49 -30 -70 -9 -20 -23
-53 -31 -72 -8 -19 -22 -51 -30 -70 -8 -19 -21 -48 -27 -65 -7 -16 -20 -46
-28 -65 -9 -19 -159 -370 -333 -780 -174 -410 -323 -760 -331 -777 -8 -18 -21
-48 -30 -68 -8 -19 -21 -50 -30 -70 -8 -19 -21 -50 -30 -70 -8 -19 -21 -50
-30 -70 117 271 -176 -411 -60 -140 -8 -19 -21 -50 -30 -70 -8 -19 -22 -52
-31 -72 -9 -21 -23 -54 -31 -73 -9 -19 -22 -51 -30 -70 -9 -19 -22 -51 -30
-70 -9 -19 -22 -51 -30 -70 -9 -19 -22 -51 -30 -70 -9 -19 -22 -51 -30 -70 -9
-19 -22 -51 -30 -70 -9 -19 -22 -51 -30 -70 -9 -19 -21 -48 -28 -65 -36 -85
-56 -125 -62 -121 -7 4 -27 44 -54 106 -8 19 -23 53 -32 75 -10 22 -24 54 -31
70 -7 17 -19 46 -28 65 -8 19 -22 51 -30 70 -8 19 -23 53 -33 75 -9 22 -23 54
-30 70 -15 36 -44 104 -54 126 -5 8 -34 76 -65 149 -31 73 -60 141 -65 149 -4
9 -14 32 -22 51 -8 19 -23 53 -33 75 -10 22 -23 54 -30 70 -22 51 -42 98 -61
140 -9 22 -23 54 -30 70 -15 36 -44 104 -54 126 -5 8 -34 76 -65 149 -31 73
-60 141 -65 149 -4 9 -14 32 -22 51 -25 59 -44 103 -61 143 -9 20 -24 54 -33
75 -10 20 -21 45 -25 54 -11 23 -11 53 0 76 10 21 39 86 55 127 7 17 20 47 29
68 9 20 23 53 31 72 9 20 22 51 30 70 -52 -122 135 315 60 140 9 20 22 51 30
70 9 20 23 52 32 73 25 58 45 104 58 137 7 17 20 47 29 68 20 45 40 90 60 137
14 33 28 67 62 145 9 19 22 50 31 70 8 19 21 50 30 70 8 19 21 50 30 70 8 19
21 49 28 67 8 18 22 51 32 73 9 22 24 55 31 72 28 68 47 109 60 135 23 46 20
48 -102 48 -101 0 -116 -2 -121 -17 -3 -10 -12 -34 -21 -53 -22 -50 -43 -100
-57 -135 -14 -33 -34 -81 -59 -138 -9 -20 -23 -53 -31 -72 -9 -20 -22 -51 -30
-70 -9 -20 -22 -50 -30 -68 -7 -17 -62 -147 -121 -287 -59 -140 -121 -283
-136 -318 -16 -34 -29 -66 -29 -71 0 -5 -6 -22 -14 -38 -13 -26 -24 -50 -62
-138 -31 -73 -49 -105 -57 -102 -5 1 -24 41 -44 87 -19 47 -42 100 -49 117 -8
18 -21 48 -30 68 -8 19 -21 50 -30 70 -8 19 -21 49 -28 67 -29 72 -61 146 -88
208 -9 19 -23 55 -33 80 -18 46 -31 77 -59 142 -9 21 -23 53 -32 73 -8 19 -21
50 -30 70 -8 19 -21 51 -29 70 -8 19 -22 51 -30 70 -18 43 -40 94 -59 138 -7
17 -34 79 -58 137 l-44 105 -104 3 c-57 1 -107 -1 -112 -6 -6 -6 89 -240 242
-598 139 -324 256 -595 260 -604 7 -14 18 -41 54 -125 9 -20 22 -51 30 -70 9
-20 22 -51 30 -70 9 -20 23 -52 32 -73 9 -20 23 -53 31 -72 8 -19 21 -48 29
-63 18 -37 18 -97 0 -134 -15 -29 -38 -81 -64 -143 -8 -19 -18 -42 -22 -51 -4
-8 -54 -123 -110 -254 -56 -131 -106 -246 -110 -254 -8 -17 -33 -74 -57 -131
-8 -19 -22 -51 -30 -70 -8 -19 -22 -51 -30 -70 -8 -19 -22 -51 -30 -70 -8 -19
-21 -48 -27 -65 -16 -38 -38 -89 -60 -140 -23 -51 -45 -102 -60 -140 -17 -40
-39 -91 -59 -137 -9 -21 -25 -55 -34 -75 -20 -47 -42 -98 -59 -138 -6 -16 -20
-48 -30 -70 -9 -22 -23 -53 -30 -70 -7 -16 -27 -60 -43 -98 -17 -37 -31 -74
-31 -83 0 -23 -29 -13 -44 16 -16 30 -59 128 -90 205 -7 17 -21 48 -30 70 -10
22 -24 54 -30 70 -7 17 -21 48 -30 70 -10 22 -24 54 -30 70 -16 38 -38 89 -60
140 -10 22 -24 54 -30 70 -7 17 -20 47 -29 68 -42 95 -50 114 -61 142 -7 17
-21 48 -30 70 -10 22 -24 54 -30 70 -7 17 -19 46 -28 65 -8 19 -21 51 -30 70
-8 19 -23 53 -32 75 -10 22 -25 56 -33 75 -8 19 -22 51 -30 70 -8 19 -22 51
-30 70 -8 19 -21 49 -27 65 -7 17 -21 48 -30 70 -10 22 -25 56 -33 75 -8 19
-22 51 -30 70 -8 19 -21 49 -27 65 -7 17 -20 46 -28 65 -9 19 -192 449 -408
955 -425 997 -415 974 -441 1025 l-18 35 -111 3 c-93 2 -111 0 -116 -13z"/>
</g>
</svg>
