<?xml version="1.0" standalone="no"?>
<!DOCTYPE svg PUBLIC "-//W3C//DTD SVG 20010904//EN"
 "http://www.w3.org/TR/2001/REC-SVG-20010904/DTD/svg10.dtd">
<svg version="1.0" xmlns="http://www.w3.org/2000/svg"
 width="214.000000pt" height="316.000000pt" viewBox="0 0 214.000000 316.000000"
 preserveAspectRatio="xMidYMid meet">
<metadata>
Created by potrace 1.10, written by Peter Selinger 2001-2011
</metadata>
<g transform="translate(0.000000,316.000000) scale(0.100000,-0.100000)"
fill="#000000" stroke="none">
<path d="M371 2366 c-166 -388 -301 -707 -301 -711 0 -3 26 -5 57 -3 l58 3
247 590 c136 325 257 613 268 640 l21 50 140 -325 c76 -179 142 -332 144 -341
3 -9 -49 -145 -115 -302 -66 -157 -120 -291 -120 -297 0 -5 22 -10 49 -10 l49
0 103 250 c57 137 107 246 110 242 4 -4 48 -108 98 -231 50 -123 96 -232 102
-242 7 -14 21 -19 54 -19 24 0 46 3 48 8 2 4 -51 138 -118 297 -89 211 -120
295 -115 310 26 66 273 641 278 647 4 3 127 -280 273 -630 l267 -637 56 -3
c31 -2 56 1 56 6 0 5 -134 324 -298 708 l-299 699 -49 0 -49 0 -145 -336 c-80
-184 -150 -345 -155 -358 -9 -18 -32 30 -164 339 l-154 360 -48 0 -47 0 -301
-704z"/>
<path d="M104 1423 c18 -43 153 -361 301 -706 l268 -628 50 3 50 3 151 352
c82 193 153 350 156 348 3 -2 73 -161 156 -354 l149 -351 50 0 50 0 298 698
c163 383 297 701 297 705 0 4 -25 7 -56 5 l-56 -3 -134 -320 c-352 -840 -398
-945 -404 -938 -4 4 -71 155 -148 335 l-139 326 104 249 c58 136 113 269 124
296 l19 47 -53 0 -53 0 -99 -241 c-55 -132 -102 -242 -106 -245 -4 -2 -51 105
-106 239 l-100 242 -52 3 c-49 3 -52 2 -46 -18 3 -11 58 -143 121 -293 63
-149 113 -279 111 -287 -14 -52 -281 -660 -287 -653 -4 4 -126 290 -270 636
l-263 627 -58 0 -58 0 33 -77z"/>
</g>
</svg>
